[Header]
FileType HTR
DataType HTRS
FileVersion 1
NumSegments 64
NumFrames 4
DataFrameRate 24
EulerRotationOrder ZYX
CalibrationUnits mm
RotationUnits Degrees
GlobalAxisofGravity Y
BoneLengthAxis Y
ScaleFactor 1.0
[SegmentNames&Hierarchy]
Hips	GLOBAL
Spine	Hips
Spine1	Spine
Spine2	Spine1
Neck	Spine2
Head	Neck
LeftEye	Head
RightEye	Head
LeftShoulder	Spine2
LeftArm	LeftShoulder
LeftForeArm	LeftArm
LeftHand	LeftForeArm
LeftHandThumb1	LeftHand
LeftHandThumb2	LeftHandThumb1
LeftHandThumb3	LeftHandThumb2
LeftHandThumb4	LeftHandThumb3
LeftHandIndex1	LeftHand
LeftHandIndex2	LeftHandIndex1
LeftHandIndex3	LeftHandIndex2
LeftHandIndex4	LeftHandIndex3
LeftHandMiddle1	LeftHand
LeftHandMiddle2	LeftHandMiddle1
LeftHandMiddle3	LeftHandMiddle2
LeftHandMiddle4	LeftHandMiddle3
LeftHandRing1	LeftHand
LeftHandRing2	LeftHandRing1
LeftHandRing3	LeftHandRing2
LeftHandRing4	LeftHandRing3
LeftHandPinky1	LeftHand
LeftHandPinky2	LeftHandPinky1
LeftHandPinky3	LeftHandPinky2
LeftHandPinky4	LeftHandPinky3
RightShoulder	Spine2
RightArm	RightShoulder
RightForeArm	RightArm
RightHand	RightForeArm
RightHandPinky1	RightHand
RightHandPinky2	RightHandPinky1
RightHandPinky3	RightHandPinky2
RightHandPinky4	RightHandPinky3
RightHandRing1	RightHand
RightHandRing2	RightHandRing1
RightHandRing3	RightHandRing2
RightHandRing4	RightHandRing3
RightHandMiddle1	RightHand
RightHandMiddle2	RightHandMiddle1
RightHandMiddle3	RightHandMiddle2
RightHandMiddle4	RightHandMiddle3
RightHandIndex1	RightHand
RightHandIndex2	RightHandIndex1
RightHandIndex3	RightHandIndex2
RightHandIndex4	RightHandIndex3
RightHandThumb1	RightHand
RightHandThumb2	RightHandThumb1
RightHandThumb3	RightHandThumb2
RightHandThumb4	RightHandThumb3
LeftUpLeg	Hips
LeftLeg	LeftUpLeg
LeftFoot	LeftLeg
LeftToeBase	LeftFoot
RightUpLeg	Hips
RightLeg	RightUpLeg
RightFoot	RightLeg
RightToeBase	RightFoot
[BasePosition]
Hips	0	0	0	0	0	0	1
Spine	0	0	0	0	0	0	1
Spine1	0	0	0	0	0	0	1
Spine2	0	0	0	0	0	0	1
Neck	0	0	0	0	0	0	1
Head	0	0	0	0	0	0	1
LeftEye	0	0	0	0	0	0	1
RightEye	0	0	0	0	0	0	1
LeftShoulder	0	0	0	0	0	0	1
LeftArm	0	0	0	0	0	0	1
LeftForeArm	0	0	0	0	0	0	1
LeftHand	0	0	0	0	0	0	1
LeftHandThumb1	0	0	0	0	0	0	1
LeftHandThumb2	0	0	0	0	0	0	1
LeftHandThumb3	0	0	0	0	0	0	1
LeftHandThumb4	0	0	0	0	0	0	1
LeftHandIndex1	0	0	0	0	0	0	1
LeftHandIndex2	0	0	0	0	0	0	1
LeftHandIndex3	0	0	0	0	0	0	1
LeftHandIndex4	0	0	0	0	0	0	1
LeftHandMiddle1	0	0	0	0	0	0	1
LeftHandMiddle2	0	0	0	0	0	0	1
LeftHandMiddle3	0	0	0	0	0	0	1
LeftHandMiddle4	0	0	0	0	0	0	1
LeftHandRing1	0	0	0	0	0	0	1
LeftHandRing2	0	0	0	0	0	0	1
LeftHandRing3	0	0	0	0	0	0	1
LeftHandRing4	0	0	0	0	0	0	1
LeftHandPinky1	0	0	0	0	0	0	1
LeftHandPinky2	0	0	0	0	0	0	1
LeftHandPinky3	0	0	0	0	0	0	1
LeftHandPinky4	0	0	0	0	0	0	1
RightShoulder	0	0	0	0	0	0	1
RightArm	0	0	0	0	0	0	1
RightForeArm	0	0	0	0	0	0	1
RightHand	0	0	0	0	0	0	1
RightHandPinky1	0	0	0	0	0	0	1
RightHandPinky2	0	0	0	0	0	0	1
RightHandPinky3	0	0	0	0	0	0	1
RightHandPinky4	0	0	0	0	0	0	1
RightHandRing1	0	0	0	0	0	0	1
RightHandRing2	0	0	0	0	0	0	1
RightHandRing3	0	0	0	0	0	0	1
RightHandRing4	0	0	0	0	0	0	1
RightHandMiddle1	0	0	0	0	0	0	1
RightHandMiddle2	0	0	0	0	0	0	1
RightHandMiddle3	0	0	0	0	0	0	1
RightHandMiddle4	0	0	0	0	0	0	1
RightHandIndex1	0	0	0	0	0	0	1
RightHandIndex2	0	0	0	0	0	0	1
RightHandIndex3	0	0	0	0	0	0	1
RightHandIndex4	0	0	0	0	0	0	1
RightHandThumb1	0	0	0	0	0	0	1
RightHandThumb2	0	0	0	0	0	0	1
RightHandThumb3	0	0	0	0	0	0	1
RightHandThumb4	0	0	0	0	0	0	1
LeftUpLeg	0	0	0	0	0	0	1
LeftLeg	0	0	0	0	0	0	1
LeftFoot	0	0	0	0	0	0	1
LeftToeBase	0	0	0	0	0	0	1
RightUpLeg	0	0	0	0	0	0	1
RightLeg	0	0	0	0	0	0	1
RightFoot	0	0	0	0	0	0	1
RightToeBase	0	0	0	0	0	0	1
[Hips]
14	-2007.781982	1002.223572	28.91080475	-9.083699226	-81.6259079	18.87603188	1.0
15	-2159.163086	988.8439331	20.68087006	-11.49814701	-80.83245087	19.06617737	1.0
16	-2295.445801	970.8795166	10.74774837	-4.547871113	-81.45726013	10.77506065	1.0
17	-2426.125732	959.5067139	3.686365604	9.300014496	-82.19815826	-2.702044249	1.0
[Spine]
14	0	101.8159943	1.315000057	4.0999856	-3.701690912	-3.980715036	1.0
15	0	101.8159943	1.315000057	5.186179161	-1.442502379	-4.241831303	1.0
16	0	101.8159943	1.315000057	6.688160419	2.093326092	-3.113145828	1.0
17	0	101.8159943	1.315000057	8.084137917	4.855317116	-1.22195828	1.0
[Spine1]
14	0	100.8349991	-10.00800037	1.275815606	-1.304586411	-0.6251809001	1.0
15	0	100.8349991	-10.00800037	1.625461817	-0.6142113805	-0.6939925551	1.0
16	0	100.8349991	-10.00800037	2.267750502	0.5832582116	-0.5220299959	1.0
17	0	100.8349991	-10.00800037	2.86533308	1.690001249	-0.2339060307	1.0
[Spine2]
14	0	91	-13.73399925	1.271776557	-1.312926531	-0.612762332	1.0
15	0	91	-13.73399925	1.622532368	-0.6320136189	-0.685657084	1.0
16	0	91	-13.73399925	2.27242136	0.5578788519	-0.5271217227	1.0
17	0	91	-13.73399925	2.8800385	1.661526322	-0.2532366216	1.0
[Neck]
14	0	166.7169952	-25.16200066	1.290430188	14.12592602	-2.991813898	1.0
15	0	166.7169952	-25.16200066	1.196303725	13.22749138	-2.357863665	1.0
16	0	166.7169952	-25.16200066	0.02189288847	11.98076153	-1.559357882	1.0
17	0	166.7169952	-25.16200066	-1.664476514	11.10728359	-0.7874909043	1.0
[Head]
14	0	96.17900085	16.84999847	-29.16885185	56.02428436	-28.14832878	1.0
15	0	96.17900085	16.84999847	-27.10591698	53.32953262	-25.52861786	1.0
16	0	96.17900085	16.84999847	-26.07403946	49.62664413	-25.35990906	1.0
17	0	96.17900085	16.84999847	-26.78945351	47.26728821	-27.09351921	1.0
[LeftEye]
14	30.6760006	64.09500122	92.83599854	0	0	0	1.0
15	30.6760006	64.09500122	92.83599854	0	0	0	1.0
16	30.6760006	64.09500122	92.83599854	0	0	0	1.0
17	30.6760006	64.09500122	92.83599854	0	0	0	1.0
[RightEye]
14	-30.6760006	64.09500122	92.83499908	0	0	0	1.0
15	-30.6760006	64.09500122	92.83499908	0	0	0	1.0
16	-30.6760006	64.09500122	92.83499908	0	0	0	1.0
17	-30.6760006	64.09500122	92.83499908	0	0	0	1.0
[LeftShoulder]
14	45.70400238	109.4599991	-26.28000069	3.322036028	-0.2664091289	-10.95145893	1.0
15	45.70400238	109.4599991	-26.28000069	3.365243912	0.01598518342	-12.15289402	1.0
16	45.70400238	109.4599991	-26.28000069	3.229676247	1.205505013	-12.08784294	1.0
17	45.70400238	109.4599991	-26.28000069	2.846171856	4.278865337	-11.50734997	1.0
[LeftArm]
14	105.923996	-5.24600029	-22.32099915	8.855569839	-2.857273817	-37.91429901	1.0
15	105.923996	-5.24600029	-22.32099915	13.17827415	-0.4158493876	-37.48084641	1.0
16	105.923996	-5.24600029	-22.32099915	18.83869743	1.519706249	-39.71954346	1.0
17	105.923996	-5.24600029	-22.32099915	23.63163567	5.000981808	-42.40147781	1.0
[LeftForeArm]
14	278.414978	-0.0009999999311	0	1.525880543e-05	-103.2160034	-0.0001983643015	1.0
15	278.414978	-0.0009999999311	0	-1.525882726e-05	-97.44046783	-7.629392348e-05	1.0
16	278.414978	-0.0009999999311	0	-0.0001364222699	-83.32282257	-0.00012246611	1.0
17	278.414978	-0.0009999999311	0	-1.134890454e-06	-70.97199249	-0.0002308034891	1.0
[LeftHand]
14	283.2879944	0	0	40.46707916	-6.500732899	1.892626762	1.0
15	283.2879944	0	0	37.28298187	-10.95012856	7.195340633	1.0
16	283.2879944	0	0	34.73635864	-13.87809372	9.137192726	1.0
17	283.2879944	0	0	35.91765976	-14.78729916	7.568221092	1.0
[LeftHandThumb1]
14	24.6609993	-15.75	26.8239994	-0.539398849	-4.342844963	-6.42468071	1.0
15	24.6609993	-15.75	26.8239994	2.330517769	-1.78724122	-4.996958256	1.0
16	24.6609993	-15.75	26.8239994	3.949019194	0.4654408097	-3.373551846	1.0
17	24.6609993	-15.75	26.8239994	2.593357801	2.798728228	-1.801732302	1.0
[LeftHandThumb2]
14	32.29800034	-18.64699936	18.64699936	2.510597944	23.05269814	12.98002815	1.0
15	32.29800034	-18.64699936	18.64699936	2.490811825	19.51326752	12.82962132	1.0
16	32.29800034	-18.64699936	18.64699936	2.929536581	15.76027107	13.1280508	1.0
17	32.29800034	-18.64699936	18.64699936	3.770461082	12.92079163	12.46155167	1.0
[LeftHandThumb3]
14	26.52600098	-15.31499958	15.31499958	1.750014544	8.664315224	0.3153811395	1.0
15	26.52600098	-15.31499958	15.31499958	1.172311425	5.909684658	-0.3051630259	1.0
16	26.52600098	-15.31499958	15.31499958	0.6109143496	3.159149408	-0.5309817195	1.0
17	26.52600098	-15.31499958	15.31499958	0.2580690384	1.491683483	0.03302451968	1.0
[LeftHandThumb4]
14	19.54599953	-11.28499985	11.28499985	0	0	0	1.0
15	19.54599953	-11.28499985	11.28499985	0	0	0	1.0
16	19.54599953	-11.28499985	11.28499985	0	0	0	1.0
17	19.54599953	-11.28499985	11.28499985	0	0	0	1.0
[LeftHandIndex1]
14	91.09299469	-5.170999527	22.60099792	-0.602042675	-2.618992805	-9.852612495	1.0
15	91.09299469	-5.170999527	22.60099792	0.1256155968	-0.6771417856	-1.125713468	1.0
16	91.09299469	-5.170999527	22.60099792	0.6811894178	0.1830583364	5.28569603	1.0
17	91.09299469	-5.170999527	22.60099792	0.7199667096	0.05962713063	5.489477158	1.0
[LeftHandIndex2]
14	36.76399994	0	0	-0.2656381428	1.95578289	-11.7963953	1.0
15	36.76399994	0	0	-0.2270742357	1.843909502	-10.63348866	1.0
16	36.76399994	0	0	-0.1952992827	1.74565208	-9.618639946	1.0
17	36.76399994	0	0	-0.1817313731	1.701795578	-9.167621613	1.0
[LeftHandIndex3]
14	28.83100128	0	0	-0.06921503693	0.5456601977	-7.555150986	1.0
15	28.83100128	0	0	-0.05519955605	0.4312176406	-6.408852577	1.0
16	28.83100128	0	0	-0.04480670393	0.3307757378	-5.404896259	1.0
17	28.83100128	0	0	-0.04075777903	0.2860961258	-4.958874702	1.0
[LeftHandIndex4]
14	23.92700005	0	0	0	0	0	1.0
15	23.92700005	0	0	0	0	0	1.0
16	23.92700005	0	0	0	0	0	1.0
17	23.92700005	0	0	0	0	0	1.0
[LeftHandMiddle1]
14	95.33399963	0	0	-3.068753242	3.459184647	-28.54639244	1.0
15	95.33399963	0	0	-1.313796401	4.340977192	-14.57957172	1.0
16	95.33399963	0	0	-0.3188279271	4.14064312	-5.651934624	1.0
17	95.33399963	0	0	-0.3960519433	3.731486559	-6.448850155	1.0
[LeftHandMiddle2]
14	36.98199844	0	0	-0.9414132237	3.221382141	-25.76680946	1.0
15	36.98199844	0	0	-0.7924885154	2.998229504	-23.11593246	1.0
16	36.98199844	0	0	-0.6721925139	2.799934626	-20.82495117	1.0
17	36.98199844	0	0	-0.6310001016	2.72765255	-20.0033989	1.0
[LeftHandMiddle3]
14	29.50900078	0	0	-0.1645059288	1.549122095	-12.92145252	1.0
15	29.50900078	0	0	-0.1067561358	1.293150067	-10.28431606	1.0
16	29.50900078	0	0	-0.06629353762	1.069509149	-8.000713348	1.0
17	29.50900078	0	0	-0.053963691	0.9889338017	-7.181874752	1.0
[LeftHandMiddle4]
14	28.3390007	0	0	0	0	0	1.0
15	28.3390007	0	0	0	0	0	1.0
16	28.3390007	0	0	0	0	0	1.0
17	28.3390007	0	0	0	0	0	1.0
[LeftHandRing1]
14	91.04499817	-0.4390000105	-18.65100098	-4.250901699	10.36492348	-36.54242325	1.0
15	91.04499817	-0.4390000105	-18.65100098	-2.751408577	10.60770798	-25.20691872	1.0
16	91.04499817	-0.4390000105	-18.65100098	-1.685357094	10.33019257	-16.67809486	1.0
17	91.04499817	-0.4390000105	-18.65100098	-1.567139864	9.979346275	-15.81425858	1.0
[LeftHandRing2]
14	31.54000092	0	0	-0.6283075213	3.169597149	-29.54447556	1.0
15	31.54000092	0	0	-0.391397357	2.649251223	-23.76929855	1.0
16	31.54000092	0	0	-0.2389699519	2.212691307	-19.10193634	1.0
17	31.54000092	0	0	-0.1936849505	2.055639029	-17.45305443	1.0
[LeftHandRing3]
14	29.37700081	0	0	-0.1554304808	2.140255451	-21.80157089	1.0
15	29.37700081	0	0	-0.0240420606	1.584279895	-16.05926704	1.0
16	29.37700081	0	0	0.041082941	1.126624465	-11.41529751	1.0
17	29.37700081	0	0	0.05522872508	0.9633931518	-9.769997597	1.0
[LeftHandRing4]
14	26.47500038	0	0	0	0	0	1.0
15	26.47500038	0	0	0	0	0	1.0
16	26.47500038	0	0	0	0	0	1.0
17	26.47500038	0	0	0	0	0	1.0
[LeftHandPinky1]
14	80.77799988	-4.887000084	-38.06099701	-6.059241295	11.33624744	-46.66923904	1.0
15	80.77799988	-4.887000084	-38.06099701	-3.874083519	14.22513485	-30.10932159	1.0
16	80.77799988	-4.887000084	-38.06099701	-2.047835827	14.84157467	-17.40674591	1.0
17	80.77799988	-4.887000084	-38.06099701	-1.493072271	14.03989124	-14.72589016	1.0
[LeftHandPinky2]
14	36	0	0	-1.825765729	3.709758759	-44.04737091	1.0
15	36	0	0	-1.095783591	2.890821934	-33.03751373	1.0
16	36	0	0	-0.6482711434	2.173260927	-24.56462669	1.0
17	36	0	0	-0.5436971188	1.963835239	-22.22260094	1.0
[LeftHandPinky3]
14	21.14200211	0	0	-0.3549341261	2.39074564	-15.71978378	1.0
15	21.14200211	0	0	-0.07109271735	1.347690463	-4.920589447	1.0
16	21.14200211	0	0	0.01107630879	0.5183894634	3.394267321	1.0
17	21.14200211	0	0	0.01250819955	0.2888399959	5.682300091	1.0
[LeftHandPinky4]
14	19.75699997	0	0	0	0	0	1.0
15	19.75699997	0	0	0	0	0	1.0
16	19.75699997	0	0	0	0	0	1.0
17	19.75699997	0	0	0	0	0	1.0
[RightShoulder]
14	-45.70000076	109.4620056	-26.28000069	5.535509586	22.22172165	8.915391922	1.0
15	-45.70000076	109.4620056	-26.28000069	5.915361404	21.70810699	11.33082676	1.0
16	-45.70000076	109.4620056	-26.28000069	6.598271847	21.63261795	14.41766071	1.0
17	-45.70000076	109.4620056	-26.28000069	7.828218937	23.31735229	17.93485451	1.0
[RightArm]
14	-105.9280014	-5.248000145	-22.32099915	38.28871536	-36.55683517	14.55373096	1.0
15	-105.9280014	-5.248000145	-22.32099915	33.37363434	-30.77511787	19.76493454	1.0
16	-105.9280014	-5.248000145	-22.32099915	27.73311806	-20.9484272	25.25814247	1.0
17	-105.9280014	-5.248000145	-22.32099915	23.22984505	-8.91176033	27.85763931	1.0
[RightForeArm]
14	-278.414978	0	0	-6.765201761e-06	56.49438858	2.215413815e-06	1.0
15	-278.414978	0	0	-5.27320708e-06	45.91301727	-4.597157385e-06	1.0
16	-278.414978	0	0	-8.553069165e-06	39.24783325	-7.388958693e-06	1.0
17	-278.414978	0	0	1.157773568e-06	37.98645401	8.768585758e-06	1.0
[RightHand]
14	-283.2879944	0	0.0009999999311	6.76978159	21.69155502	-4.564186573	1.0
15	-283.2879944	0	0.0009999999311	18.47077942	12.65546894	-0.5734311342	1.0
16	-283.2879944	0	0.0009999999311	24.08667946	6.384613037	1.667461038	1.0
17	-283.2879944	0	0.0009999999311	26.26397324	1.825179458	3.417662859	1.0
[RightHandPinky1]
14	-80.76699829	-4.885000229	-38.06000137	-0.7258707881	-12.88775253	8.093402863	1.0
15	-80.76699829	-4.885000229	-38.06000137	-2.833995342	-12.59082985	25.75186348	1.0
16	-80.76699829	-4.885000229	-38.06000137	-5.845394611	-10.50275612	47.41881943	1.0
17	-80.76699829	-4.885000229	-38.06000137	-7.959579945	-7.762488842	62.07175064	1.0
[RightHandPinky2]
14	-36	0	0.0009999999311	-0.7209486365	-2.306907415	26.1062851	1.0
15	-36	0	0.0009999999311	-1.156472087	-2.971818209	34.0715065	1.0
16	-36	0	0.0009999999311	-1.938404918	-3.81072855	45.585495	1.0
17	-36	0	0.0009999999311	-2.590684652	-4.304586411	53.79977798	1.0
[RightHandPinky3]
14	-21.14200211	0	0	-0.156725198	2.19998455	-0.2366172969	1.0
15	-21.14200211	0	0	-0.2733331323	1.425882578	7.569406986	1.0
16	-21.14200211	0	0	-0.6233623028	0.3544174731	18.81842041	1.0
17	-21.14200211	0	0	-0.9965179563	-0.3558511138	26.8228817	1.0
[RightHandPinky4]
14	-19.75699997	0	0	0	0	0	1.0
15	-19.75699997	0	0	0	0	0	1.0
16	-19.75699997	0	0	0	0	0	1.0
17	-19.75699997	0	0	0	0	0	1.0
[RightHandRing1]
14	-91.03599548	-0.4390000105	-18.65100098	-1.046456099	-8.742101669	11.76985264	1.0
15	-91.03599548	-0.4390000105	-18.65100098	-2.331484079	-9.53735733	22.30402756	1.0
16	-91.03599548	-0.4390000105	-18.65100098	-4.182271004	-9.935811996	36.20736694	1.0
17	-91.03599548	-0.4390000105	-18.65100098	-5.710520744	-9.428778648	47.3744278	1.0
[RightHandRing2]
14	-31.54000092	0	0	-0.2398479134	-2.215486765	19.13415146	1.0
15	-31.54000092	0	0	-0.3983106315	-2.666509628	23.96028328	1.0
16	-31.54000092	0	0	-0.679451704	-3.265872478	30.64977074	1.0
17	-31.54000092	0	0	-0.9058317542	-3.646693945	35.12784195	1.0
[RightHandRing3]
14	-29.37700081	0	0	-0.02579731308	0.8690063357	9.906827927	1.0
15	-29.37700081	0	0	-0.08142059296	0.3933549523	14.71640778	1.0
16	-29.37700081	0	0	-0.223801896	-0.2539918721	21.37570381	1.0
17	-29.37700081	0	0	-0.3604305089	-0.6754849553	25.82718658	1.0
[RightHandRing4]
14	-26.47500038	0	0	0	0	0	1.0
15	-26.47500038	0	0	0	0	0	1.0
16	-26.47500038	0	0	0	0	0	1.0
17	-26.47500038	0	0	0	0	0	1.0
[RightHandMiddle1]
14	-95.32500458	0	0	0.1909167022	-1.260697603	1.051142573	1.0
15	-95.32500458	0	0	-1.183957219	-2.127969265	13.78649139	1.0
16	-95.32500458	0	0	-3.287615299	-2.415103436	30.33509827	1.0
17	-95.32500458	0	0	-5.041779995	-1.571729779	43.12504196	1.0
[RightHandMiddle2]
14	-36.98199844	0	0	-0.6428592205	-2.748525858	20.24300194	1.0
15	-36.98199844	0	0	-0.7893350124	-2.993055105	23.05905914	1.0
16	-36.98199844	0	0	-0.9770059586	-3.271306038	26.37603378	1.0
17	-36.98199844	0	0	-1.078140855	-3.407979965	28.05669594	1.0
[RightHandMiddle3]
14	-29.50900078	0	0	-0.1339745671	-1.220684528	11.14473724	1.0
15	-29.50900078	0	0	-0.1987774968	-1.487750411	13.90702152	1.0
16	-29.50900078	0	0	-0.2917813063	-1.798683882	17.17005348	1.0
17	-29.50900078	0	0	-0.345896244	-1.954782367	18.83131027	1.0
[RightHandMiddle4]
14	-28.3390007	0	0.0009999999311	0	0	0	1.0
15	-28.3390007	0	0.0009999999311	0	0	0	1.0
16	-28.3390007	0	0.0009999999311	0	0	0	1.0
17	-28.3390007	0	0.0009999999311	0	0	0	1.0
[RightHandIndex1]
14	-91.08300018	-5.167999744	22.60099792	1.10011065	1.577646494	-9.727773666	1.0
15	-91.08300018	-5.167999744	22.60099792	0.6068232656	2.052878141	-1.175122738	1.0
16	-91.08300018	-5.167999744	22.60099792	-0.2639099658	3.27170825	10.30399895	1.0
17	-91.08300018	-5.167999744	22.60099792	-1.350708485	4.658270359	20.65032387	1.0
[RightHandIndex2]
14	-36.76399994	0	0	-0.2786822319	-1.991921902	12.17561913	1.0
15	-36.76399994	0	0	-0.284753263	-2.008533716	12.34952831	1.0
16	-36.76399994	0	0	-0.2983750105	-2.045274973	12.73467541	1.0
17	-36.76399994	0	0	-0.3118822575	-2.080972433	13.10991192	1.0
[RightHandIndex3]
14	-28.83100128	0	0	-0.1911943257	0.05109836534	11.7181139	1.0
15	-28.83100128	0	0	-0.1935903132	0.03960135952	11.8348856	1.0
16	-28.83100128	0	0	-0.2008780688	0.005353850778	12.18298912	1.0
17	-28.83100128	0	0	-0.2091178894	-0.03219250217	12.56516171	1.0
[RightHandIndex4]
14	-23.92700005	0	0	0	0	0	1.0
15	-23.92700005	0	0	0	0	0	1.0
16	-23.92700005	0	0	0	0	0	1.0
17	-23.92700005	0	0	0	0	0	1.0
[RightHandThumb1]
14	-24.64799881	-15.72700024	26.82600021	3.18535471	-1.537141085	2.618721485	1.0
15	-24.64799881	-15.72700024	26.82600021	1.604959011	1.400510073	4.427614689	1.0
16	-24.64799881	-15.72700024	26.82600021	-0.4209677577	5.388969421	6.671319485	1.0
17	-24.64799881	-15.72700024	26.82600021	-1.712680936	8.087125778	8.078746796	1.0
[RightHandThumb2]
14	-32.29800034	-18.64699936	18.64699936	4.462846279	-16.26688957	-21.61913872	1.0
15	-32.29800034	-18.64699936	18.64699936	3.733032942	-17.59823799	-18.59770966	1.0
16	-32.29800034	-18.64699936	18.64699936	3.115530968	-21.47759056	-15.86033154	1.0
17	-32.29800034	-18.64699936	18.64699936	2.833683491	-25.55970764	-13.7429266	1.0
[RightHandThumb3]
14	-26.52600098	-15.31399918	15.31399918	0.7708795071	2.141211987	4.964250565	1.0
15	-26.52600098	-15.31399918	15.31399918	1.155802965	-1.554537892	3.625005245	1.0
16	-26.52600098	-15.31399918	15.31399918	1.726020098	-6.612462521	1.84403336	1.0
17	-26.52600098	-15.31399918	15.31399918	2.11091876	-10.58476925	0.5955473781	1.0
[RightHandThumb4]
14	-19.54599953	-11.28499985	11.28499985	0	0	0	1.0
15	-19.54599953	-11.28499985	11.28499985	0	0	0	1.0
16	-19.54599953	-11.28499985	11.28499985	0	0	0	1.0
17	-19.54599953	-11.28499985	11.28499985	0	0	0	1.0
[LeftUpLeg]
14	82.07800293	-67.51699829	-15.99599934	11.64811325	5.243434429	0.4583447278	1.0
15	82.07800293	-67.51699829	-15.99599934	2.768109322	2.613697767	0.9118567109	1.0
16	82.07800293	-67.51699829	-15.99599934	-10.55738163	2.594739914	5.017612934	1.0
17	82.07800293	-67.51699829	-15.99599934	-27.83320618	4.494666576	8.727440834	1.0
[LeftLeg]
14	0	-443.7049866	2.845999956	36.3547821	-3.932245016	9.943784714	1.0
15	0	-443.7049866	2.845999956	64.66130066	-5.1746521	10.63855076	1.0
16	0	-443.7049866	2.845999956	88.7982254	-5.568972588	7.787829876	1.0
17	0	-443.7049866	2.845999956	103.8603668	-3.803777933	5.134371281	1.0
[LeftFoot]
14	0	-444.2789917	-29.8219986	19.11149406	5.257042885	-11.96450233	1.0
15	0	-444.2789917	-29.8219986	15.55690956	10.87506294	-9.529833794	1.0
16	0	-444.2789917	-29.8219986	13.0384407	13.43702984	-3.525363922	1.0
17	0	-444.2789917	-29.8219986	8.399598122	10.12660789	1.268046021	1.0
[LeftToeBase]
14	0	-87.28699493	107.1060028	-7.817160606	-1.462084898e-09	-1.220233571e-05	1.0
15	0	-87.28699493	107.1060028	-10.74337578	-8.166946373e-07	-1.212992993e-05	1.0
16	0	-87.28699493	107.1060028	-11.82086277	3.78721802e-06	-3.849308541e-06	1.0
17	0	-87.28699493	107.1060028	-9.615333557	-2.020039938e-05	3.120807742e-05	1.0
[RightUpLeg]
14	-82.07800293	-67.51699829	-15.99599934	-46.0057869	-0.697044909	-1.902218819	1.0
15	-82.07800293	-67.51699829	-15.99599934	-38.09573746	-2.248727798	-1.699176788	1.0
16	-82.07800293	-67.51699829	-15.99599934	-33.33184814	-0.5177482367	1.077028394	1.0
17	-82.07800293	-67.51699829	-15.99599934	-26.03308868	1.674189329	4.91357851	1.0
[RightLeg]
14	0	-443.7049866	2.861999989	35.85933685	-1.51151371	-4.00755167	1.0
15	0	-443.7049866	2.861999989	32.89427185	-0.6099837422	-2.178388119	1.0
16	0	-443.7049866	2.861999989	41.53276443	-2.56466341	-3.583606243	1.0
17	0	-443.7049866	2.861999989	43.95055771	-2.911218643	-4.681224346	1.0
[RightFoot]
14	0	-444.2770081	-29.83799934	-7.669480801	-0.3182663023	8.192128181	1.0
15	0	-444.2770081	-29.83799934	-6.324632645	-0.6072556376	5.424378395	1.0
16	0	-444.2770081	-29.83799934	-14.369277	-0.864561379	-0.3875199556	1.0
17	0	-444.2770081	-29.83799934	-24.53673744	-1.644301891	-0.6361458898	1.0
[RightToeBase]
14	0	-87.28699493	107.1060028	0.2954461873	-1.212562802e-05	3.46883121e-06	1.0
15	0	-87.28699493	107.1060028	-1.440110564	4.418824346e-07	-2.665065495e-06	1.0
16	0	-87.28699493	107.1060028	-0.893548727	-1.579983473e-05	2.308543571e-06	1.0
17	0	-87.28699493	107.1060028	-2.938152313	-5.340230928e-06	3.33929006e-06	1.0
[EndOfFile]
